<svg width="18" height="16" viewBox="0 0 18 16" fill="none" xmlns="http://www.w3.org/2000/svg">
<rect width="3" height="3" transform="matrix(-1 0 0 1 9 6.5)" fill="black"/>
<rect width="3" height="3" transform="matrix(-1 0 0 1 12 6.5)" fill="black"/>
<rect width="3" height="3" transform="matrix(-1 0 0 1 15 6.5)" fill="black"/>
<rect width="3" height="3" transform="matrix(-1 0 0 1 18 6.5)" fill="black"/>
<rect width="3" height="3" transform="matrix(-1 0 0 1 9 0.5)" fill="black"/>
<rect x="9" y="15.5" width="3" height="3" transform="rotate(180 9 15.5)" fill="black"/>
<rect width="3" height="3" transform="matrix(-1 0 0 1 6 3.5)" fill="black"/>
<rect x="6" y="12.5" width="3" height="3" transform="rotate(180 6 12.5)" fill="black"/>
<rect width="3" height="3" transform="matrix(-1 0 0 1 3 6.5)" fill="black"/>
<rect x="3" y="9.5" width="3" height="3" transform="rotate(180 3 9.5)" fill="black"/>
</svg>
