<svg width="24" height="20" viewBox="0 0 24 20" fill="none" xmlns="http://www.w3.org/2000/svg">
<rect x="6.66675" y="3.33301" width="10" height="3.33333" fill="#ED4848"/>
<rect x="3.33325" y="6.66699" width="16.6667" height="3.33333" fill="#ED4848"/>
<rect x="3.33325" y="10" width="16.6667" height="3.33333" fill="#ED4848"/>
<rect x="6.66675" y="13.333" width="10" height="3.33333" fill="#ED4848"/>
<rect x="6.66675" width="3.33333" height="3.33333" fill="black"/>
<rect x="3.33325" y="3.33301" width="3.33333" height="3.33333" fill="black"/>
<rect y="6.66699" width="3.33333" height="3.33333" fill="black"/>
<rect x="3.33325" y="10" width="3.33333" height="3.33333" fill="black"/>
<rect x="3.33325" y="10" width="3.33333" height="3.33333" fill="black"/>
<rect x="6.66675" y="13.333" width="3.33333" height="3.33333" fill="black"/>
<rect x="10" y="16.667" width="3.33333" height="3.33333" fill="black"/>
<rect x="13.3333" y="13.333" width="3.33333" height="3.33333" fill="black"/>
<rect x="16.6667" y="10" width="3.33333" height="3.33333" fill="black"/>
<rect x="20" y="6.66699" width="3.33333" height="3.33333" fill="black"/>
<rect x="16.6667" y="3.33301" width="3.33333" height="3.33333" fill="black"/>
<rect x="13.3333" width="3.33333" height="3.33333" fill="black"/>
<rect x="10" y="3.33301" width="3.33333" height="3.33333" fill="black"/>
</svg>
