<svg width="40" height="32" viewBox="0 0 40 32" fill="none" xmlns="http://www.w3.org/2000/svg">
<rect x="4" y="4" width="4" height="4" fill="white"/>
<rect y="4" width="4" height="4" fill="white"/>
<rect x="4" y="8" width="4" height="4" fill="white"/>
<rect x="8" y="12" width="4" height="4" fill="white"/>
<rect x="4" y="16" width="4" height="4" fill="white"/>
<rect x="8" y="20" width="4" height="4" fill="white"/>
<rect x="16" y="12" width="4" height="4" fill="white"/>
<rect x="20" y="8" width="4" height="4" fill="white"/>
<rect x="20" y="4" width="4" height="4" fill="white"/>
<rect x="24" y="4" width="4" height="4" fill="white"/>
<rect x="28" y="4" width="4" height="4" fill="white"/>
<rect x="28" width="4" height="4" fill="white"/>
<rect x="24" width="4" height="4" fill="white"/>
<rect x="32" y="12" width="4" height="4" fill="white"/>
<rect x="32" y="4" width="4" height="4" fill="white"/>
<rect x="36" y="8" width="4" height="4" fill="white"/>
<rect x="28" y="8" width="4" height="4" fill="white"/>
<rect x="24" y="8" width="4" height="4" fill="white"/>
<rect x="24" y="12" width="4" height="4" fill="white"/>
<rect x="20" y="12" width="4" height="4" fill="white"/>
<rect x="28" y="12" width="4" height="4" fill="white"/>
<rect x="28" y="16" width="4" height="4" fill="white"/>
<rect x="24" y="20" width="4" height="4" fill="white"/>
<rect x="20" y="24" width="4" height="4" fill="white"/>
<rect x="12" y="28" width="4" height="4" fill="white"/>
<rect x="12" y="24" width="4" height="4" fill="white"/>
<rect x="16" y="24" width="4" height="4" fill="white"/>
<rect x="16" y="20" width="4" height="4" fill="white"/>
<rect x="12" y="20" width="4" height="4" fill="white"/>
<rect x="8" y="16" width="4" height="4" fill="white"/>
<rect x="12" y="16" width="4" height="4" fill="white"/>
<rect x="16" y="16" width="4" height="4" fill="white"/>
<rect x="20" y="16" width="4" height="4" fill="white"/>
<rect x="24" y="16" width="4" height="4" fill="white"/>
<rect x="20" y="20" width="4" height="4" fill="white"/>
<rect x="8" y="28" width="4" height="4" fill="white"/>
<rect x="8" y="8" width="4" height="4" fill="white"/>
<rect x="12" y="12" width="4" height="4" fill="white"/>
</svg>
