<svg width="24" height="25" viewBox="0 0 24 25" fill="none" xmlns="http://www.w3.org/2000/svg">
<rect x="6" y="12" width="3" height="3" transform="rotate(-180 6 12)" fill="black"/>
<rect x="6" y="15" width="3" height="3" transform="rotate(-180 6 15)" fill="black"/>
<rect x="3" y="18" width="3" height="3" transform="rotate(-180 3 18)" fill="black"/>
<rect x="3" y="21" width="3" height="3" transform="rotate(-180 3 21)" fill="black"/>
<rect x="6" y="21" width="3" height="3" transform="rotate(-180 6 21)" fill="black"/>
<rect x="9" y="21" width="3" height="3" transform="rotate(-180 9 21)" fill="black"/>
<rect x="12" y="21" width="3" height="3" transform="rotate(-180 12 21)" fill="black"/>
<rect x="15" y="21" width="3" height="3" transform="rotate(-180 15 21)" fill="black"/>
<rect x="12" y="24" width="3" height="3" transform="rotate(-180 12 24)" fill="black"/>
<rect x="15" y="24" width="3" height="3" transform="rotate(-180 15 24)" fill="black"/>
<rect x="18" y="21" width="3" height="3" transform="rotate(-180 18 21)" fill="black"/>
<rect x="21" y="21" width="3" height="3" transform="rotate(-180 21 21)" fill="black"/>
<rect x="24" y="21" width="3" height="3" transform="rotate(-180 24 21)" fill="black"/>
<rect x="6" y="9" width="3" height="3" transform="rotate(-180 6 9)" fill="black"/>
<rect x="9" y="6" width="3" height="3" transform="rotate(-180 9 6)" fill="black"/>
<rect x="12" y="3" width="3" height="3" transform="rotate(-180 12 3)" fill="black"/>
<rect x="15" y="3" width="3" height="3" transform="rotate(-180 15 3)" fill="black"/>
<rect x="18" y="6" width="3" height="3" transform="rotate(-180 18 6)" fill="black"/>
<rect x="21" y="9" width="3" height="3" transform="rotate(-180 21 9)" fill="black"/>
<rect width="3" height="3" transform="matrix(-1 0 0 1 21 9)" fill="black"/>
<rect width="3" height="3" transform="matrix(-1 0 0 1 21 12)" fill="black"/>
<rect width="3" height="3" transform="matrix(-1 0 0 1 24 15)" fill="black"/>
</svg>
